HIERARCHY
ROOT Hips
{
    OFFSET 0.000000 0.000000 0.000000
    CHANNELS 6 Xposition Yposition Zposition Zrotation Xrotation Yrotation
    JOINT Spine
    {
        OFFSET -0.000000 7.897928 0.000000
        CHANNELS 3 Zrotation Xrotation Yrotation
        JOINT Spine1
        {
            OFFSET -0.000000 22.881742 0.000000
            CHANNELS 3 Zrotation Xrotation Yrotation
            JOINT Neck
            {
                OFFSET -0.000000 22.787771 2.071616
                CHANNELS 3 Zrotation Xrotation Yrotation
                JOINT Head
                {
                    OFFSET -0.000000 13.484266 -1.926324
                    CHANNELS 3 Zrotation Xrotation Yrotation
                    End Site
                    {
                        OFFSET -0.000000 24.079046 0.000000
                    }
                }
            }
            JOINT LeftShoulder
            {
                OFFSET 3.854963 21.096247 -0.110468
                CHANNELS 3 Zrotation Xrotation Yrotation
                JOINT LeftArm
                {
                    OFFSET 10.572188 0.000000 0.000000
                    CHANNELS 3 Zrotation Xrotation Yrotation
                    JOINT LeftForeArm
                    {
                        OFFSET 34.932854 0.000000 0.000000
                        CHANNELS 3 Zrotation Xrotation Yrotation
                        JOINT LeftHand
                        {
                            OFFSET 23.279285 0.000000 0.000000
                            CHANNELS 3 Zrotation Xrotation Yrotation
                            End Site
                            {
                                OFFSET 14.447429 0.000000 0.000000
                            }
                        }
                    }
                }
            }
            JOINT RightShoulder
            {
                OFFSET -3.825334 21.096247 -0.110468
                CHANNELS 3 Zrotation Xrotation Yrotation
                JOINT RightArm
                {
                    OFFSET -10.572188 0.000000 0.000000
                    CHANNELS 3 Zrotation Xrotation Yrotation
                    JOINT RightForeArm
                    {
                        OFFSET -34.932854 0.000000 0.000000
                        CHANNELS 3 Zrotation Xrotation Yrotation
                        JOINT RightHand
                        {
                            OFFSET -23.279285 0.000000 0.000000
                            CHANNELS 3 Zrotation Xrotation Yrotation
                            End Site
                            {
                                OFFSET -14.447429 0.000000 0.000000
                            }
                        }
                    }
                }
            }
        }
    }
    JOINT LeftUpLeg
    {
        OFFSET 9.631618 0.000000 0.000000
        CHANNELS 3 Zrotation Xrotation Yrotation
        JOINT LeftLeg
        {
            OFFSET -0.000000 -35.385456 0.000000
            CHANNELS 3 Zrotation Xrotation Yrotation
            JOINT LeftFoot
            {
                OFFSET -0.000000 -43.284000 0.000000
                CHANNELS 3 Zrotation Xrotation Yrotation
                JOINT LeftToeBase
                {
                    OFFSET -0.000000 -6.260552 14.447429
                    CHANNELS 3 Zrotation Xrotation Yrotation
                    End Site
                    {
                        OFFSET -0.000000 0.000000 3.852648
                    }
                }
            }
        }
    }
    JOINT RightUpLeg
    {
        OFFSET -9.631618 0.000000 0.000000
        CHANNELS 3 Zrotation Xrotation Yrotation
        JOINT RightLeg
        {
            OFFSET -0.000000 -35.385456 0.000000
            CHANNELS 3 Zrotation Xrotation Yrotation
            JOINT RightFoot
            {
                OFFSET -0.000000 -43.284000 0.000000
                CHANNELS 3 Zrotation Xrotation Yrotation
                JOINT RightToeBase
                {
                    OFFSET -0.000000 -6.260552 14.447429
                    CHANNELS 3 Zrotation Xrotation Yrotation
                    End Site
                    {
                        OFFSET -0.000000 0.000000 3.852648
                    }
                }
            }
        }
    }
}
MOTION
Frames:    4
Frame Time:    0.008333
-1.604918    88.749107    39.296501    -3.511118    -1.665620    88.046707    2.560293    -6.005570    -0.522317    -2.094704    -0.431416    -0.664549    -0.383494    16.263071    -0.709691    5.166492    2.523959    -0.112133    19.568497    0.781851    4.199193    -17.960369    6.595604    -7.320176    4.760951    -4.760589    -2.127202    -11.714092    -4.630024    -0.414896    -14.193336    -0.460214    9.897992    15.534064    -0.411309    -1.201699    -2.428027    -4.634777    0.737000    -1.061200    -4.605898    -1.442115    6.374960    -0.552837    4.283084    -4.178011    8.127878    -11.428984    -1.224729    -9.198822    21.749920    0.000000    0.000000    0.000000    -3.840530    -5.487780    -2.612635    4.265676    12.335900    1.662092    0.424270    -6.958496    -9.423865    0.000000    0.000000    0.000000    
-1.599019    88.749557    39.296059    -3.512373    -1.670833    88.043587    2.554936    -6.018002    -0.514374    -2.077856    -0.412535    -0.656205    -0.360175    16.238144    -0.701728    5.132046    2.504923    -0.107171    19.558878    0.769071    4.183936    -17.958132    6.595815    -7.322384    4.754594    -4.749521    -2.129902    -11.700323    -4.617961    -0.425292    -14.199150    -0.471951    9.865040    15.538114    -0.433765    -1.193052    -2.434794    -4.636749    0.759306    -1.068993    -4.607202    -1.447839    6.378407    -0.544730    4.295778    -4.179327    8.118960    -11.428593    -1.231329    -9.199731    21.750637    0.000000    0.000000    0.000000    -3.840399    -5.493433    -2.606182    4.274934    12.360255    1.696340    0.430511    -6.968778    -9.465047    0.000000    0.000000    0.000000    
-1.593472    88.749146    39.291233    -3.510709    -1.668880    88.041458    2.560774    -6.016087    -0.512904    -2.086389    -0.418915    -0.655167    -0.368577    16.234325    -0.701188    5.144707    2.486201    -0.104158    19.558905    0.783672    4.180347    -17.959093    6.563773    -7.335584    4.746890    -4.708536    -2.124122    -11.708824    -4.574910    -0.448786    -14.197025    -0.475944    9.865616    15.545832    -0.421486    -1.205723    -2.441057    -4.639287    0.784725    -1.099414    -4.609165    -1.407420    6.372583    -0.535387    4.298871    -4.174946    8.113871    -11.446398    -1.235402    -9.203809    21.761112    0.000000    0.000000    0.000000    -3.847361    -5.489360    -2.610602    4.278055    12.357834    1.677413    0.411829    -6.976607    -9.444214    0.000000    0.000000    0.000000    
-1.587707    88.749680    39.289413    -3.509502    -1.667919    88.045906    2.551486    -6.016829    -0.513679    -2.072897    -0.422571    -0.655464    -0.380263    16.236347    -0.696352    5.156812    2.461435    -0.096716    19.544897    0.775945    4.172397    -17.952324    6.610872    -7.338727    4.753086    -4.710385    -2.129064    -11.683783    -4.576916    -0.445160    -14.184649    -0.478432    9.853931    15.530938    -0.416382    -1.201755    -2.447775    -4.622648    0.792780    -1.092055    -4.592536    -1.394486    6.368703    -0.524988    4.312556    -4.173907    8.100761    -11.432268    -1.225692    -9.192281    21.736387    0.000000    0.000000    0.000000    -3.854260    -5.488992    -2.620304    4.282282    12.368838    1.734483    0.427166    -6.977269    -9.488944    0.000000    0.000000    0.000000    
